<svg xmlns="http://www.w3.org/2000/svg" viewBox="0 0 21.85 13.58"><defs><style>.cls-1{fill:#009245;}</style></defs><title>car</title><g id="Layer_2" data-name="Layer 2"><g id="Layer_1-2" data-name="Layer 1"><path class="cls-1" d="M14.55,0A.93.93,0,0,1,15,1.14q-1,5.13-2.08,10.27c0,.25-.14.38-.44.37-1.6,0-3.2,0-4.79,0-.43,0-.38-.26-.43-.5a2.65,2.65,0,0,0-2.09-2,2.6,2.6,0,0,0-2.64,1.21,1.72,1.72,0,0,0-.31.79c0,.43-.19.5-.59.51-1.57,0-1.89-.1-1.5-1.82C.79,7.1,1.34,4.21,1.9,1.32A1.57,1.57,0,0,1,2.91,0Z"/><path class="cls-1" d="M21.85,9.14A10,10,0,0,0,21.42,11a.8.8,0,0,1-.9.78c-.55,0-.84,0-1-.7a2.45,2.45,0,0,0-2.67-1.82,2.51,2.51,0,0,0-2.32,2.2c-.08.62-.49.25-.73.29s-.18-.25-.16-.39c.51-2.61,1-5.21,1.54-7.82A.69.69,0,0,1,16,2.9c.93,0,1.86,0,2.79,0a1,1,0,0,1,1,.7c.67,1.66,1.36,3.32,2,5Zm-6-3.63a.34.34,0,0,0,.3.43L20.05,7c.29.08.34,0,.23-.27q-.54-1.29-1.05-2.58a.46.46,0,0,0-.47-.32c-.76,0-1.52,0-2.28,0-.21,0-.38.07-.42.29C16,4.61,15.89,5.08,15.82,5.51Z"/><path class="cls-1" d="M17.11,13.58a1.87,1.87,0,0,1-1.86-1.77A1.84,1.84,0,0,1,17.06,10a1.8,1.8,0,0,1,1.88,1.79A1.83,1.83,0,0,1,17.11,13.58Z"/><path class="cls-1" d="M6.59,11.79A1.84,1.84,0,1,1,4.78,10,1.79,1.79,0,0,1,6.59,11.79Z"/></g></g></svg>