<svg xmlns="http://www.w3.org/2000/svg" viewBox="0 0 18 14.63"><defs><style>.cls-1{fill:#e6e6e6;}.cls-2{fill:none;stroke:#e6e6e6;stroke-miterlimit:10;stroke-width:2px;}.cls-3{fill:#2d373c;}</style></defs><title>d_Trip</title><g id="Layer_2" data-name="Layer 2"><g id="Layer_1-2" data-name="Layer 1"><path class="cls-1" d="M18,13.19c-.36.31-.79.13-1.18.17-.19,0-.31,0-.39.23a1.53,1.53,0,0,1-1.54,1,1.58,1.58,0,0,1-1.51-1.1l-.07-.17h-8c-.26,0-.42,0-.54.32a1.47,1.47,0,0,1-1.47,1,1.53,1.53,0,0,1-1.48-1c-.08-.18-.12-.32-.37-.32-.71,0-.71,0-.82-.66L0,12.39v-.32l.68-.28V4.29c0-.58,0-.63.64-.63H12c.57,0,.61,0,.61.61V6.15c.69,0,1.36,0,2,0a.9.9,0,0,1,.76.34L18,9.43ZM1.4,4.39v6H11.92v-6ZM17.26,9.92H15.14c-.46,0-.52-.07-.53-.54V6.9H12.68v5.74c.57.07.56.07.81-.39a1.53,1.53,0,0,1,1.43-.84,1.51,1.51,0,0,1,1.41.82c.29.5.31.51.93.39ZM11.93,11.1H1.4v1.52c.28.15.35,0,.44-.23a1.53,1.53,0,0,1,1.46-1,1.47,1.47,0,0,1,1.49.94.47.47,0,0,0,.53.33h6.61ZM4.24,13a.93.93,0,0,0-.92-.9.93.93,0,0,0-.91.91.92.92,0,1,0,1.83,0Zm11.6,0a.92.92,0,1,0-1.84,0,.92.92,0,0,0,1.84,0Zm-.51-5.55V9.2h1.53Z"/><path class="cls-1" d="M9.56,9.26H11c.25,0,.46.11.42.35A.52.52,0,0,1,11,10q-1.45,0-2.91,0a.5.5,0,0,1-.37-.35c0-.25.16-.35.41-.35Z"/><path class="cls-1" d="M6.86,10.15c-.21-.25-.42-.38-.44-.55s.18-.34.42-.34.48.07.44.36S7.06,9.91,6.86,10.15Z"/><polygon class="cls-2" points="10.17 6.74 8.76 4.63 9.93 3.85 10.38 4.54 13.51 1.41 14.5 2.4 10.17 6.74"/><polygon class="cls-3" points="10.17 6.74 8.76 4.63 9.93 3.85 10.38 4.54 13.51 1.41 14.5 2.4 10.17 6.74"/></g></g></svg>