<svg xmlns="http://www.w3.org/2000/svg" viewBox="0 0 18 15.96"><defs><style>.cls-1{fill:#e6e6e6;}</style></defs><title>dashboard</title><g id="Layer_2" data-name="Layer 2"><g id="Layer_1-2" data-name="Layer 1"><path class="cls-1" d="M2.68,16a2.25,2.25,0,0,1-.28-.74c0-2.16,0-4.33,0-6.49a1,1,0,0,1,.3-.68C4.62,6.29,6.57,4.56,8.5,2.81c.37-.32.55-.33.92,0L15.26,8a.88.88,0,0,1,.32.73c0,2.16,0,4.32,0,6.49a2.6,2.6,0,0,1-.28.74H10.12V12H7.89c0,.18,0,.34,0,.5l0,3.45Zm11.87-1a1.72,1.72,0,0,0,0-.21c0-1.94,0-3.87,0-5.81a.8.8,0,0,0-.24-.44L11.86,6.29,9,3.71l-.14.1C7.06,5.39,5.29,7,3.54,8.55A.67.67,0,0,0,3.36,9c0,1.88,0,3.75,0,5.63,0,.11,0,.22,0,.34H6.88V11.73c0-.55.15-.7.69-.7h2.78c.55,0,.68.13.68.69,0,1,0,1.95,0,2.93,0,.16,0,.33.24.33Z"/><path class="cls-1" d="M9.21,0,11.7,2.21l6,5.21.15.12a.5.5,0,0,1,0,.72.45.45,0,0,1-.7,0L14.24,5.74l-5-4.33c-.09-.09-.19-.16-.3-.26L5.82,3.88C4.19,5.3,2.56,6.73.92,8.14a.88.88,0,0,1-.52.25A.56.56,0,0,1,0,8.06a.74.74,0,0,1,.2-.55C1,6.74,1.91,6,2.76,5.25L8.75,0Z"/></g></g></svg>