<svg xmlns="http://www.w3.org/2000/svg" xmlns:xlink="http://www.w3.org/1999/xlink" viewBox="0 0 48.03 60"><defs><style>.cls-1{fill:url(#linear-gradient);}.cls-2{fill:#fbfbfc;}.cls-3{fill:url(#linear-gradient-2);}.cls-4{fill:#fff;}</style><linearGradient id="linear-gradient" y1="30" x2="48.03" y2="30" gradientUnits="userSpaceOnUse"><stop offset="0" stop-color="#fbb03b"/><stop offset="1" stop-color="#f15a24"/></linearGradient><linearGradient id="linear-gradient-2" x1="6.05" y1="25.12" x2="41.99" y2="25.12" xlink:href="#linear-gradient"/></defs><title>detention</title><g id="Layer_2" data-name="Layer 2"><g id="Layer_1-2" data-name="Layer 1"><path class="cls-1" d="M25.73,0a8.16,8.16,0,0,0,1.78.28A23.6,23.6,0,0,1,44.37,11.74a24.66,24.66,0,0,1,3.51,15.82,24.94,24.94,0,0,1-6,14c-1.32,1.55-2.77,3-4.18,4.42-4.42,4.61-8.86,9.19-13.28,13.79-.3.31-.44.37-.79,0C18,53.87,12.24,48.05,6.65,42.1a24.52,24.52,0,0,1-6.31-13A30.78,30.78,0,0,1,0,25.81V24c.05-.66.07-1.32.15-2A24.9,24.9,0,0,1,6.47,7.93a23.39,23.39,0,0,1,14-7.64A6.29,6.29,0,0,0,22.16,0ZM3.63,23.93A23,23,0,0,0,6.78,36.37a20,20,0,0,0,23.6,8.81,21.08,21.08,0,0,0,14-19.63,21.42,21.42,0,0,0-5-14.32A19.71,19.71,0,0,0,15,6.2,20.41,20.41,0,0,0,3.63,23.93Z"/><path class="cls-2" d="M3.63,23.93A20.41,20.41,0,0,1,15,6.2a19.71,19.71,0,0,1,24.38,5,21.42,21.42,0,0,1,5,14.32,21.08,21.08,0,0,1-14,19.63,20,20,0,0,1-23.6-8.81A23,23,0,0,1,3.63,23.93Zm21.56,18c0,.49,0,1,0,1.47,0,.33.08.44.41.39.53-.09,1.07-.13,1.61-.23A18.51,18.51,0,0,0,42,26.75c0-.37-.1-.43-.42-.43-.93,0-1.86,0-2.78,0-.3,0-.4-.09-.39-.39,0-.56,0-1.12,0-1.67,0-.31.1-.39.39-.39.74,0,1.47,0,2.2,0,1,0,1,0,.92-1a18.53,18.53,0,0,0-7.38-13,17.34,17.34,0,0,0-8.61-3.41c-.71-.08-.71-.07-.71.58,0,.87,0,1.75,0,2.62,0,.41-.13.51-.51.48a14.42,14.42,0,0,0-1.47,0c-.32,0-.41-.1-.41-.42,0-.91,0-1.82,0-2.72,0-.53-.17-.61-.62-.56a16.41,16.41,0,0,0-4.27,1c-7.16,3-11,8.38-11.9,16,0,.33.08.39.37.38.92,0,1.85,0,2.78,0,.37,0,.48.12.46.48a12,12,0,0,0,0,1.47c0,.38-.08.52-.49.5-.92,0-1.85,0-2.77,0-.31,0-.37.08-.35.39a18.22,18.22,0,0,0,1.39,5.73c2.87,6.49,7.75,10.34,14.85,11.29.46.06.56-.08.55-.51,0-.93,0-1.85,0-2.78,0-.34.1-.46.45-.44.52,0,1.05,0,1.57,0,.28,0,.37.09.36.36C25.18,40.87,25.19,41.38,25.19,41.88Z"/><path class="cls-3" d="M25.19,41.88c0-.5,0-1,0-1.52,0-.27-.08-.37-.36-.36-.52,0-1.05,0-1.57,0-.35,0-.45.1-.45.44,0,.93,0,1.85,0,2.78,0,.43-.09.57-.55.51-7.1-.95-12-4.8-14.85-11.29a18.22,18.22,0,0,1-1.39-5.73c0-.31,0-.39.35-.39.92,0,1.85,0,2.77,0,.41,0,.51-.12.49-.5a12,12,0,0,1,0-1.47c0-.36-.09-.49-.46-.48-.93,0-1.86,0-2.78,0-.29,0-.4,0-.37-.38.88-7.63,4.74-13,11.9-16a16.41,16.41,0,0,1,4.27-1c.45,0,.65,0,.62.56,0,.9,0,1.81,0,2.72,0,.32.09.44.41.42a14.42,14.42,0,0,1,1.47,0c.38,0,.52-.07.51-.48,0-.87,0-1.75,0-2.62,0-.65,0-.66.71-.58a17.34,17.34,0,0,1,8.61,3.41,18.53,18.53,0,0,1,7.38,13c.12,1,.1,1-.92,1-.73,0-1.46,0-2.2,0-.29,0-.4.08-.39.39,0,.55,0,1.11,0,1.67,0,.3.09.39.39.39.92,0,1.85,0,2.78,0,.32,0,.45.06.42.43A18.51,18.51,0,0,1,27.21,43.51c-.54.1-1.08.14-1.61.23-.33,0-.43-.06-.41-.39C25.21,42.86,25.19,42.37,25.19,41.88Z"/><path class="cls-4" d="M24.17,32.83H18.38c0-.16,0-.3,0-.44,0-3.79,0-7.59,0-11.38a.66.66,0,0,1,.32-.57c.65-.57,1.25-1.19,1.87-1.79s1.31-1.35,2-1.93A7.11,7.11,0,0,1,24.17,16Zm-.75-6.23a.81.81,0,0,0-.78-.78.8.8,0,0,0,0,1.59A.8.8,0,0,0,23.42,26.6Z"/><path class="cls-4" d="M25.06,16.12A3.45,3.45,0,0,1,27,17c.66.6,1.25,1.29,1.89,1.91s1.17,1.07,1.75,1.61a.58.58,0,0,1,.17.35c0,.49.05,1,.05,1.48q0,5,0,10v.48H25.06Zm1.5,11.29a.8.8,0,1,0-.79-.76A.8.8,0,0,0,26.56,27.41Z"/><path class="cls-4" d="M17.53,27.79v5.65c0,.54-.07.61-.6.61h-.82c-.37,0-.52-.17-.52-.53,0-3.8,0-7.59,0-11.39a1,1,0,0,1,1-1,1,1,0,0,1,.93,1C17.54,24,17.53,25.91,17.53,27.79Z"/><path class="cls-4" d="M31.66,27.77V22.25c0-.71.37-1.15.95-1.15a1,1,0,0,1,1,1.14V33.46c0,.48-.11.58-.58.59h-.82c-.4,0-.54-.16-.54-.55C31.66,31.59,31.66,29.68,31.66,27.77Z"/><path class="cls-4" d="M17.53,19.37a.9.9,0,0,1-.94,1,1,1,0,0,1-1-1,1,1,0,0,1,1-1A1,1,0,0,1,17.53,19.37Z"/><path class="cls-4" d="M32.6,20.33a.9.9,0,0,1-.94-1,1,1,0,0,1,.95-1,1,1,0,0,1,1,1A1,1,0,0,1,32.6,20.33Z"/></g></g></svg>