<svg xmlns="http://www.w3.org/2000/svg" xmlns:xlink="http://www.w3.org/1999/xlink" viewBox="0 0 49.61 59.89"><defs><style>.cls-1,.cls-2,.cls-3{fill-rule:evenodd;}.cls-1{fill:url(#linear-gradient);}.cls-2{fill:url(#linear-gradient-2);}.cls-3{fill:#fefefe;}.cls-4{fill:#fff;}</style><linearGradient id="linear-gradient" y1="29.94" x2="49.61" y2="29.94" gradientUnits="userSpaceOnUse"><stop offset="0.25" stop-color="#f15a24"/><stop offset="1" stop-color="#c1272d"/></linearGradient><linearGradient id="linear-gradient-2" x1="5.4" y1="24.99" x2="44.21" y2="24.99" xlink:href="#linear-gradient"/></defs><title>dispatch_p</title><g id="Layer_2" data-name="Layer 2"><g id="Layer_1-2" data-name="Layer 1"><path class="cls-1" d="M24.81,0A24.77,24.77,0,0,0,6.6,41.61l0,0,.69.69h0L24.81,59.89,42.33,42.36h0v0l.69-.68,0,0A24.78,24.78,0,0,0,24.81,0"/><path class="cls-2" d="M24.81,5.59A19.4,19.4,0,1,1,5.4,25,19.41,19.41,0,0,1,24.81,5.59"/><path class="cls-3" d="M26,6.42v3.72H23.59V6.42A18.6,18.6,0,0,0,6.23,23.78H10V26.2H6.23A18.62,18.62,0,0,0,23.59,43.57V39.84H26v3.73A18.62,18.62,0,0,0,43.38,26.2H39.65V23.78h3.73A18.6,18.6,0,0,0,26,6.42M24.81,4a21,21,0,1,1-21,21A21,21,0,0,1,24.81,4Z"/><path class="cls-4" d="M15.62,30.82V17.91c0-.1.07-.22.12-.32A1.17,1.17,0,0,1,16.88,17H29.22a1.54,1.54,0,0,1,.37,0,1.11,1.11,0,0,1,.85,1.18v4.38a.24.24,0,0,0,.16.25,5,5,0,0,1,1.26.84,5.34,5.34,0,0,1-6.77,8.24.53.53,0,0,0-.32-.1H16.86a1.56,1.56,0,0,1-.63-.14A1.11,1.11,0,0,1,15.62,30.82Zm8-.58a5.4,5.4,0,0,1,.62-6.16h-.68V22.5h1.58v.78a5.34,5.34,0,0,1,3.9-1V20.64H17v9.6Zm4-3.34-.2-.15-1.7-1.33a1,1,0,0,0-.23-.13.37.37,0,0,0-.42.09.34.34,0,0,0-.07.4.81.81,0,0,0,.24.28l1.93,1.51a.45.45,0,0,1,.16.25,1,1,0,0,0,1.11.75.94.94,0,0,0,.77-1.06.24.24,0,0,1,.09-.17l1.84-1.84a1.3,1.3,0,0,0,.18-.23.38.38,0,0,0-.52-.53,1.92,1.92,0,0,0-.22.18L29,26.51c-.16.17-.28.28-.54.17A.84.84,0,0,0,27.63,26.9Zm-7.14-8.84v1.3h5.08v-1.3Zm7.79,14.38a.48.48,0,0,0,.49-.48.49.49,0,1,0-1,0A.48.48,0,0,0,28.28,32.44Zm.5-9.19a.49.49,0,0,0-1,0,.48.48,0,0,0,.48.5A.51.51,0,0,0,28.78,23.25Zm3.85,3.87a.48.48,0,0,0-.48.49.49.49,0,1,0,.48-.49Zm-8.21.49a.48.48,0,0,0-.48-.49.49.49,0,0,0-.5.49.5.5,0,0,0,.48.48A.48.48,0,0,0,24.42,27.61Z"/><path class="cls-4" d="M19.8,27.54v1.57H18.23V27.54Z"/><path class="cls-4" d="M22.47,27.54v1.57H20.9V27.54Z"/><path class="cls-4" d="M22.47,22.5v1.56H20.9V22.5Z"/><path class="cls-4" d="M19.8,25v1.56H18.23V25Z"/><path class="cls-4" d="M20.89,26.59V25h1.58v1.56Z"/></g></g></svg>