<svg xmlns="http://www.w3.org/2000/svg" viewBox="0 0 16 16"><defs><style>.cls-1{fill:#333;}</style></defs><title>export</title><g id="Layer_2" data-name="Layer 2"><g id="Layer_1-2" data-name="Layer 1"><path class="cls-1" d="M7.25,12.33a18.53,18.53,0,0,1-.51-2.09,3.66,3.66,0,0,1,1.12-3,12,12,0,0,1,3-2.25l.7,1.18a4.08,4.08,0,0,0,.34.57c.12.15.29.34.44.34s.31-.22.38-.39c.54-1.37,1.07-2.75,1.6-4.12.14-.35.28-.69.41-1s0-.6-.39-.66Q11.55.43,8.73,0a.57.57,0,0,0-.44.16.53.53,0,0,0,0,.44c.35.63.72,1.24,1.06,1.82C8.57,3,7.76,3.54,7,4.16A5.2,5.2,0,0,0,5,7.4a4.83,4.83,0,0,0,.74,3.23,11,11,0,0,0,1,1.38C6.84,12.15,7.05,12.21,7.25,12.33Z"/><path class="cls-1" d="M4.9,1.27V2.4H2.77a2.64,2.64,0,0,0-.63.06A1.17,1.17,0,0,0,1.23,3.6c0,3.34,0,6.69,0,10a1.2,1.2,0,0,0,1.25,1.21h11a1.21,1.21,0,0,0,1.27-1.27V7.43H16c0,.13,0,.26,0,.39v5.55A2.43,2.43,0,0,1,13.39,16H2.62A2.41,2.41,0,0,1,0,13.39Q0,8.6,0,3.84A2.43,2.43,0,0,1,2.62,1.27C3.37,1.26,4.12,1.27,4.9,1.27Z"/></g></g></svg>