<svg xmlns="http://www.w3.org/2000/svg" xmlns:xlink="http://www.w3.org/1999/xlink" viewBox="0 0 49.71 60"><defs><style>.cls-1,.cls-2,.cls-3,.cls-4{fill-rule:evenodd;}.cls-1{fill:url(#linear-gradient);}.cls-2{fill:url(#linear-gradient-2);}.cls-3{fill:#fefefe;}.cls-4,.cls-5{fill:#fff;}</style><linearGradient id="linear-gradient" y1="30" x2="49.71" y2="30" gradientUnits="userSpaceOnUse"><stop offset="0" stop-color="#f9e052"/><stop offset="1" stop-color="#cb9721"/></linearGradient><linearGradient id="linear-gradient-2" x1="5.41" y1="25.04" x2="44.29" y2="25.04" xlink:href="#linear-gradient"/></defs><title>gold</title><g id="Layer_2" data-name="Layer 2"><g id="Layer_1-2" data-name="Layer 1"><path class="cls-1" d="M24.85,0A24.82,24.82,0,0,0,6.61,41.69l0,0,.69.7h0L24.85,60,42.41,42.44h0v0l.69-.69,0,0A24.82,24.82,0,0,0,24.85,0"/><path class="cls-2" d="M24.85,5.6A19.44,19.44,0,1,1,5.41,25,19.44,19.44,0,0,1,24.85,5.6"/><path class="cls-3" d="M26.07,6.43v3.73H23.64V6.43A18.65,18.65,0,0,0,6.24,23.82H10v2.43H6.24a18.66,18.66,0,0,0,17.4,17.4V39.91h2.43v3.74a18.65,18.65,0,0,0,17.39-17.4H39.73V23.82h3.73A18.64,18.64,0,0,0,26.07,6.43M24.85,4A21.08,21.08,0,1,1,3.77,25,21.08,21.08,0,0,1,24.85,4Z"/><path class="cls-4" d="M22.66,27.48a.71.71,0,0,1-1,0,.68.68,0,0,1,0-1l6.9-6.8a6.45,6.45,0,0,0-1.81-1,6.7,6.7,0,0,0-2.25-.39h0a6.75,6.75,0,0,0-2.5.49,6.59,6.59,0,0,0-2.11,1.4,6.3,6.3,0,0,0-1.41,2.07A6.41,6.41,0,0,0,22,30.61a6.58,6.58,0,0,0,7.11-1.39.71.71,0,0,1,1,0,.68.68,0,0,1,0,1A7.91,7.91,0,0,1,27.52,32a8.06,8.06,0,0,1-8.71-1.71,7.79,7.79,0,0,1,0-11.12,8.09,8.09,0,0,1,8.71-1.7,7.87,7.87,0,0,1,2.58,1.7.7.7,0,0,1,.22.51.72.72,0,0,1-.22.52Z"/><path class="cls-5" d="M16.08,20A9.67,9.67,0,0,1,17.59,18a.4.4,0,0,1,.57,0,.38.38,0,0,1,0,.56,10.38,10.38,0,0,0-.76.86,10.51,10.51,0,0,0-.64.95.38.38,0,0,1-.54.14.38.38,0,0,1-.14-.55"/><path class="cls-5" d="M18.36,32.08a9.47,9.47,0,0,1-2.66-3.39,8.89,8.89,0,0,1-.46-1.15A.41.41,0,0,1,15.5,27a.42.42,0,0,1,.51.27,8.75,8.75,0,0,0,2.87,4.18.37.37,0,0,1,.05.55.38.38,0,0,1-.57,0"/><path class="cls-5" d="M25.33,15.2a9.78,9.78,0,0,1,6.41,3.2.38.38,0,0,1,0,.56.4.4,0,0,1-.57,0A8.86,8.86,0,0,0,25.24,16a.39.39,0,1,1,.09-.78"/><path class="cls-5" d="M21.45,15.65a.39.39,0,0,0-.32.45.39.39,0,0,0,.46.32.39.39,0,0,0,.32-.45.39.39,0,0,0-.46-.32"/><path class="cls-5" d="M22,33.89a.4.4,0,0,0,.52-.2.4.4,0,0,0-.21-.52.4.4,0,0,0-.52.21.38.38,0,0,0,.21.51"/><path class="cls-5" d="M14.85,25.54a.39.39,0,0,0,.38.41.4.4,0,0,0,.42-.37.4.4,0,0,0-.8,0"/><path class="cls-5" d="M23.4,15.23a.39.39,0,0,0-.41.38.39.39,0,0,0,.39.4.39.39,0,0,0,.41-.38.41.41,0,0,0-.39-.4"/><path class="cls-5" d="M15.31,21.68a.39.39,0,0,0,.18.53A.41.41,0,0,0,16,22a.39.39,0,0,0-.18-.53.41.41,0,0,0-.53.18"/><path class="cls-5" d="M20,33.14a.42.42,0,0,0,.56-.09.39.39,0,0,0-.09-.55.4.4,0,0,0-.56.09.39.39,0,0,0,.09.55"/><path class="cls-5" d="M14.88,23.55a.39.39,0,0,0,.28.48.39.39,0,0,0,.49-.27.39.39,0,0,0-.28-.48.4.4,0,0,0-.49.27"/><path class="cls-5" d="M32.9,20a.41.41,0,0,0-.51-.23.39.39,0,0,0-.23.51.42.42,0,0,0,.52.23A.39.39,0,0,0,32.9,20"/><path class="cls-5" d="M33.69,21.79a.41.41,0,0,0-.46-.32.4.4,0,0,0-.33.46.4.4,0,0,0,.79-.14"/><path class="cls-5" d="M34.11,23.86a.4.4,0,0,0-.8-.05.4.4,0,0,0,.8.05"/><path class="cls-5" d="M34.07,25.83a.39.39,0,0,0-.28-.48.4.4,0,0,0-.49.28.4.4,0,0,0,.77.2"/><path class="cls-5" d="M33.62,27.77a9.43,9.43,0,0,1-2.65,4A9.72,9.72,0,0,1,24,34.18a.4.4,0,0,1-.39-.31.39.39,0,0,1,.43-.47A9,9,0,0,0,29.39,32a8.85,8.85,0,0,0,3.48-4.43.39.39,0,0,1,.3-.27h0a.4.4,0,0,1,.3.06.39.39,0,0,1,.15.46"/><path class="cls-4" d="M26.28,20.26a6,6,0,0,0-.6-.19A4.9,4.9,0,0,0,23.81,20a.4.4,0,0,1-.47-.33.39.39,0,0,1,.34-.45,5.79,5.79,0,0,1,2.19.12,6.57,6.57,0,0,1,.71.23h0a.41.41,0,0,1,.24.31.4.4,0,0,1-.34.45.34.34,0,0,1-.2,0"/><path class="cls-4" d="M29.67,24a.39.39,0,0,1,.42.36,4,4,0,0,1,0,.69,5.55,5.55,0,0,1-.11.76,5.48,5.48,0,0,1-.5,1.37,5.41,5.41,0,0,1-.84,1.2.37.37,0,0,1-.56,0,.38.38,0,0,1,0-.55,4.55,4.55,0,0,0,.72-1,4.49,4.49,0,0,0,.42-1.16c0-.23.08-.43.1-.67a3.68,3.68,0,0,0,0-.57.39.39,0,0,1,.37-.42"/><path class="cls-4" d="M25.85,29.67a.4.4,0,0,1-.31.46,5.48,5.48,0,0,1-2.28,0h-.08a5.37,5.37,0,0,1-1.38-.52,5.6,5.6,0,0,1-1.19-.85.36.36,0,0,1,0-.56.39.39,0,0,1,.56,0,4.74,4.74,0,0,0,1.73,1,5,5,0,0,0,1.91.27,3.53,3.53,0,0,0,.58-.08.41.41,0,0,1,.47.31"/><path class="cls-4" d="M29.77,22.86a.41.41,0,0,0-.34-.45.4.4,0,0,0-.45.33.38.38,0,0,0,.33.45.4.4,0,0,0,.46-.33"/><path class="cls-4" d="M27,29.6a.38.38,0,0,0,.4-.38.4.4,0,1,0-.4.38"/><path class="cls-4" d="M19.43,27.1a.38.38,0,0,0,.38.4.4.4,0,0,0,.42-.37.4.4,0,0,0-.8,0"/><path class="cls-4" d="M18.92,25.38a.38.38,0,0,0,.23.51.39.39,0,0,0,.51-.22.4.4,0,0,0-.74-.29"/><path class="cls-4" d="M19,23.59a.39.39,0,0,0,.06.55.4.4,0,0,0,.56-.05.38.38,0,0,0-.05-.55.41.41,0,0,0-.57.05"/><path class="cls-4" d="M19.63,21.92a.39.39,0,0,0-.13.54.4.4,0,0,0,.68-.41.41.41,0,0,0-.55-.13"/><path class="cls-4" d="M20.81,20.51a.4.4,0,0,0-.3.47.4.4,0,0,0,.48.3.4.4,0,0,0,.3-.47.4.4,0,0,0-.48-.3"/></g></g></svg>