<svg xmlns="http://www.w3.org/2000/svg" viewBox="0 0 16 14.69"><defs><style>.cls-1{fill:#333;}</style></defs><title>import</title><g id="Layer_2" data-name="Layer 2"><g id="Layer_1-2" data-name="Layer 1"><path class="cls-1" d="M16,2.25a18.53,18.53,0,0,0-2.09-.51,3.65,3.65,0,0,0-3,1.12,12.14,12.14,0,0,0-2.25,3l1.19.69a4.15,4.15,0,0,1,.57.35c.14.11.34.29.33.43s-.22.31-.38.37C9,8.26,7.67,8.78,6.29,9.31c-.34.14-.69.28-1,.4s-.59,0-.65-.38q-.46-2.8-.89-5.61a.54.54,0,0,1,.16-.44.5.5,0,0,1,.43,0c.63.35,1.24.72,1.81,1C6.7,3.56,7.23,2.75,7.85,2a5.19,5.19,0,0,1,3.23-2,4.9,4.9,0,0,1,3.23.73,13,13,0,0,1,1.37,1C15.82,1.84,15.88,2.05,16,2.25Z"/><path class="cls-1" d="M4.87,0V1.13H2.75a3.18,3.18,0,0,0-.62.06,1.16,1.16,0,0,0-.9,1.14q0,5,0,10a1.19,1.19,0,0,0,1.23,1.21h11a1.22,1.22,0,0,0,1.26-1.27V6.15h1.19c0,.12,0,.25,0,.38q0,2.78,0,5.55a2.42,2.42,0,0,1-2.59,2.61H2.61A2.41,2.41,0,0,1,0,12.09C0,8.91,0,5.74,0,2.56A2.42,2.42,0,0,1,2.61,0Z"/></g></g></svg>