<svg xmlns="http://www.w3.org/2000/svg" viewBox="0 0 16.26 16.25"><defs><style>.cls-1{fill:#e6e6e6;stroke:#2d373c;stroke-miterlimit:10;stroke-width:0.25px;}</style></defs><title>Master</title><g id="Layer_2" data-name="Layer 2"><g id="Layer_1-2" data-name="Layer 1"><path class="cls-1" d="M16.13,8.16a8,8,0,1,1-8-8A8,8,0,0,1,16.13,8.16ZM6.5,13.1V9.17H7.82v1.51l.1.07,6-6A6.69,6.69,0,0,0,5.46,2,6.48,6.48,0,0,0,1.58,9.09L6.21,4.45H4.82V3.16H8.77V7.09H7.44V5.23C5.62,7.05,3.89,8.8,2.15,10.53c-.19.19-.11.32,0,.5a6.68,6.68,0,0,0,12.55-1.5,6.23,6.23,0,0,0-.16-3.38L8.86,11.79h1.58V13.1Z"/></g></g></svg>