<svg xmlns="http://www.w3.org/2000/svg" xmlns:xlink="http://www.w3.org/1999/xlink" viewBox="0 0 49.71 60"><defs><style>.cls-1,.cls-2,.cls-3{fill-rule:evenodd;}.cls-1{fill:url(#linear-gradient);}.cls-2{fill:url(#linear-gradient-2);}.cls-3{fill:#fefefe;}.cls-4{fill:#fff;}</style><linearGradient id="linear-gradient" y1="30" x2="49.71" y2="30" gradientUnits="userSpaceOnUse"><stop offset="0" stop-color="#00a99d"/><stop offset="1" stop-color="#22b573"/></linearGradient><linearGradient id="linear-gradient-2" x1="5.41" y1="25.04" x2="44.29" y2="25.04" xlink:href="#linear-gradient"/></defs><title>opt_eng</title><g id="Layer_2" data-name="Layer 2"><g id="Layer_1-2" data-name="Layer 1"><path class="cls-1" d="M24.85,0A24.82,24.82,0,0,0,6.61,41.69l0,0,.69.7h0L24.85,60,42.41,42.44h0v0l.69-.69,0,0A24.82,24.82,0,0,0,24.85,0"/><path class="cls-2" d="M24.85,5.6A19.44,19.44,0,1,1,5.41,25,19.44,19.44,0,0,1,24.85,5.6"/><path class="cls-3" d="M26.07,6.43v3.73H23.64V6.43A18.65,18.65,0,0,0,6.24,23.82H10v2.43H6.24a18.66,18.66,0,0,0,17.4,17.4V39.91h2.43v3.74a18.65,18.65,0,0,0,17.39-17.4H39.73V23.82h3.73A18.64,18.64,0,0,0,26.07,6.43M24.85,4A21.08,21.08,0,1,1,3.77,25,21.08,21.08,0,0,1,24.85,4Z"/><path class="cls-4" d="M34.63,26.4l-2.26,1.34L30.22,29a.15.15,0,0,1-.17,0l-4.56-2.6,0,0s.05,0,.08-.07L30,23.77a.14.14,0,0,1,.15,0l4.49,2.6S34.62,26.38,34.63,26.4Z"/><path class="cls-4" d="M20,18.4l4.53-2.61a.11.11,0,0,1,.13,0l4.54,2.63-.69.41L24.8,21a.17.17,0,0,1-.18,0l-4.56-2.6Z"/><path class="cls-4" d="M15,26.39l.85-.49,3.64-2.11a.23.23,0,0,1,.24,0l4.39,2.55.08.05-.9.54L19.77,29a.19.19,0,0,1-.23,0C18,28.13,16.5,27.27,15,26.39Z"/><path class="cls-4" d="M29.76,33.75l-.88-.51-3.61-2.08c-.06,0-.1-.07-.1-.14V27.11s0,0,0-.05.08,0,.11.05l4.4,2.55a.15.15,0,0,1,.1.14c0,1.3,0,2.59,0,3.89A.06.06,0,0,1,29.76,33.75Z"/><path class="cls-4" d="M20,33.76V29.84a.2.2,0,0,1,.11-.2l4.29-2.54a.13.13,0,0,1,.12,0v1.19c0,.92,0,1.83,0,2.74a.15.15,0,0,1-.07.16l-4.4,2.58Z"/><path class="cls-4" d="M19.74,19.05l.68.4,3.83,2.22a.17.17,0,0,1,.1.18v3.93l-.72-.43L20,23.17a.17.17,0,0,1-.1-.15l-.09-2.41c0-.49,0-1-.07-1.47Z"/><path class="cls-4" d="M14.69,27l.88.51c1.2.7,2.4,1.4,3.61,2.09a.24.24,0,0,1,.13.23c0,1.24,0,2.49,0,3.73v.15c-.06,0-.09,0-.12-.05L15,31.16a.18.18,0,0,1-.1-.17l-.15-3.68C14.7,27.22,14.7,27.14,14.69,27Z"/><path class="cls-4" d="M35,27c-.05,1.34-.1,2.66-.15,4,0,.08,0,.11-.1.14l-2.71,1.66-1.53.93s0-.07,0-.11c0-1.27,0-2.54,0-3.82a.15.15,0,0,1,.08-.15L35,27.06Z"/><path class="cls-4" d="M25.07,25.75v-3.9a.17.17,0,0,1,.09-.18l4.33-2.57.08,0v.52c0,.65-.05,1.3-.07,2,0,.5,0,1-.05,1.5a.17.17,0,0,1-.08.13q-2.11,1.28-4.21,2.57S25.12,25.77,25.07,25.75Z"/></g></g></svg>