<svg xmlns="http://www.w3.org/2000/svg" xmlns:xlink="http://www.w3.org/1999/xlink" viewBox="0 0 48.03 60"><defs><style>.cls-1{fill:url(#linear-gradient);}.cls-2{fill:#fbfbfc;}.cls-3{fill:url(#linear-gradient-2);}.cls-4{fill:#fff;}</style><linearGradient id="linear-gradient" y1="30" x2="48.03" y2="30" gradientUnits="userSpaceOnUse"><stop offset="0" stop-color="#39b54a"/><stop offset="1" stop-color="#006837"/></linearGradient><linearGradient id="linear-gradient-2" x1="6.05" y1="25.12" x2="41.99" y2="25.12" xlink:href="#linear-gradient"/></defs><title>pod</title><g id="Layer_2" data-name="Layer 2"><g id="Layer_1-2" data-name="Layer 1"><path class="cls-1" d="M25.73,0a8.16,8.16,0,0,0,1.78.28A23.6,23.6,0,0,1,44.37,11.74a24.66,24.66,0,0,1,3.51,15.82,24.94,24.94,0,0,1-6,14c-1.32,1.55-2.77,3-4.18,4.42-4.42,4.61-8.86,9.19-13.28,13.79-.3.31-.44.37-.79,0C18,53.87,12.24,48.05,6.65,42.1a24.52,24.52,0,0,1-6.31-13A30.78,30.78,0,0,1,0,25.81V24c.05-.66.07-1.32.15-2A24.9,24.9,0,0,1,6.47,7.93a23.39,23.39,0,0,1,14-7.64A6.29,6.29,0,0,0,22.16,0ZM3.63,23.93A23,23,0,0,0,6.78,36.37a20,20,0,0,0,23.6,8.81,21.08,21.08,0,0,0,14-19.63,21.42,21.42,0,0,0-5-14.32A19.71,19.71,0,0,0,15,6.2,20.41,20.41,0,0,0,3.63,23.93Z"/><path class="cls-2" d="M3.63,23.93A20.41,20.41,0,0,1,15,6.2a19.71,19.71,0,0,1,24.38,5,21.42,21.42,0,0,1,5,14.32,21.08,21.08,0,0,1-14,19.63,20,20,0,0,1-23.6-8.81A23,23,0,0,1,3.63,23.93Zm21.56,18c0,.49,0,1,0,1.47,0,.33.08.44.41.39.53-.09,1.07-.13,1.61-.23A18.51,18.51,0,0,0,42,26.75c0-.37-.1-.43-.42-.43-.93,0-1.86,0-2.78,0-.3,0-.4-.09-.39-.39,0-.56,0-1.12,0-1.67,0-.31.1-.39.39-.39.74,0,1.47,0,2.2,0,1,0,1,0,.92-1a18.53,18.53,0,0,0-7.38-13,17.34,17.34,0,0,0-8.61-3.41c-.71-.08-.71-.07-.71.58,0,.87,0,1.75,0,2.62,0,.41-.13.51-.51.48a14.42,14.42,0,0,0-1.47,0c-.32,0-.41-.1-.41-.42,0-.91,0-1.82,0-2.72,0-.53-.17-.61-.62-.56a16.41,16.41,0,0,0-4.27,1c-7.16,3-11,8.38-11.9,16,0,.33.08.39.37.38.92,0,1.85,0,2.78,0,.37,0,.48.12.46.48a12,12,0,0,0,0,1.47c0,.38-.08.52-.49.5-.92,0-1.85,0-2.77,0-.31,0-.37.08-.35.39a18.22,18.22,0,0,0,1.39,5.73c2.87,6.49,7.75,10.34,14.85,11.29.46.06.56-.08.55-.51,0-.93,0-1.85,0-2.78,0-.34.1-.46.45-.44.52,0,1.05,0,1.57,0,.28,0,.37.09.36.36C25.18,40.87,25.19,41.38,25.19,41.88Z"/><path class="cls-3" d="M25.19,41.88c0-.5,0-1,0-1.52,0-.27-.08-.37-.36-.36-.52,0-1.05,0-1.57,0-.35,0-.45.1-.45.44,0,.93,0,1.85,0,2.78,0,.43-.09.57-.55.51-7.1-.95-12-4.8-14.85-11.29a18.22,18.22,0,0,1-1.39-5.73c0-.31,0-.39.35-.39.92,0,1.85,0,2.77,0,.41,0,.51-.12.49-.5a12,12,0,0,1,0-1.47c0-.36-.09-.49-.46-.48-.93,0-1.86,0-2.78,0-.29,0-.4,0-.37-.38.88-7.63,4.74-13,11.9-16a16.41,16.41,0,0,1,4.27-1c.45,0,.65,0,.62.56,0,.9,0,1.81,0,2.72,0,.32.09.44.41.42a14.42,14.42,0,0,1,1.47,0c.38,0,.52-.07.51-.48,0-.87,0-1.75,0-2.62,0-.65,0-.66.71-.58a17.34,17.34,0,0,1,8.61,3.41,18.53,18.53,0,0,1,7.38,13c.12,1,.1,1-.92,1-.73,0-1.46,0-2.2,0-.29,0-.4.08-.39.39,0,.55,0,1.11,0,1.67,0,.3.09.39.39.39.92,0,1.85,0,2.78,0,.32,0,.45.06.42.43A18.51,18.51,0,0,1,27.21,43.51c-.54.1-1.08.14-1.61.23-.33,0-.43-.06-.41-.39C25.21,42.86,25.19,42.37,25.19,41.88Z"/><path class="cls-4" d="M16.84,25.05c0-2.37,0-4.75,0-7.13,0-.35.06-.47.45-.47q6.65,0,13.28,0c.4,0,.5.1.49.5,0,4.75,0,9.51,0,14.26q0,1.13-.9,1.23c-.56.06-1-.3-1.11-1-.07-.29-.18-.57-.54-.55s-.42.27-.48.54c-.15.69-.47,1-1,1s-.9-.32-1-1c-.06-.3-.14-.58-.49-.58s-.47.32-.54.62c-.12.62-.48,1-1,.95a1,1,0,0,1-1-.91c-.07-.32-.13-.68-.55-.66s-.44.36-.51.66a1,1,0,0,1-2,0c-.06-.31-.15-.63-.52-.63s-.45.31-.52.63a1,1,0,0,1-1.08.94,1,1,0,0,1-.94-1.14Zm8.71-4.3c1,0,2.05,0,3.08,0,.35,0,.44-.13.39-.43s.17-.59-.35-.59q-3,0-6.1,0c-.5,0-.32.34-.36.58s0,.45.38.44C23.58,20.73,24.57,20.75,25.55,20.75Zm0,2.95c1,0,2.05,0,3.08,0,.34,0,.44-.12.39-.42s.16-.59-.35-.59q-3,0-6.09,0c-.45,0-.36.27-.37.52s-.05.51.39.49C23.58,23.68,24.57,23.7,25.55,23.7Zm.07,2.94c1,0,2,0,3,0,.43,0,.44-.19.43-.5s0-.53-.42-.53c-2,0-4,0-6,0-.41,0-.43.18-.41.48s-.1.56.39.54C23.61,26.62,24.62,26.64,25.62,26.64Zm-.07,2.93c1,0,2.06,0,3.08,0,.49,0,.37-.28.39-.55s0-.47-.41-.47c-2,0-4,0-6,0-.45,0-.41.22-.42.52s0,.52.44.5C23.62,29.55,24.59,29.57,25.55,29.57Zm-5.69-8.28a1,1,0,0,0,1-1,1,1,0,0,0-1-1,1,1,0,0,0-1,.95A1,1,0,0,0,19.86,21.29Zm1,1.94a1,1,0,0,0-1-1,1,1,0,0,0-1,1,1,1,0,0,0,1,1A1,1,0,0,0,20.88,23.23Zm0,2.91a1,1,0,1,0-1,1A1,1,0,0,0,20.88,26.14Zm0,2.92a1,1,0,0,0-1-1,1,1,0,0,0-1,1,1,1,0,0,0,2,0Z"/></g></g></svg>