<svg xmlns="http://www.w3.org/2000/svg" xmlns:xlink="http://www.w3.org/1999/xlink" viewBox="0 0 29.82 36"><defs><style>.cls-1,.cls-2,.cls-3{fill-rule:evenodd;}.cls-1{fill:url(#linear-gradient);}.cls-2{fill:url(#linear-gradient-2);}.cls-3{fill:#fefefe;}.cls-4{fill:#fff;}</style><linearGradient id="linear-gradient" y1="18" x2="29.82" y2="18" gradientUnits="userSpaceOnUse"><stop offset="0" stop-color="#29abe2"/><stop offset="1" stop-color="#2e3192"/></linearGradient><linearGradient id="linear-gradient-2" x1="3.25" y1="15.02" x2="26.58" y2="15.02" xlink:href="#linear-gradient"/></defs><title>scct</title><g id="Layer_2" data-name="Layer 2"><g id="Layer_1-2" data-name="Layer 1"><path class="cls-1" d="M14.91,0A14.89,14.89,0,0,0,4,25l0,0,.41.42h0L14.91,36,25.44,25.47h0v0l.41-.41h0A14.9,14.9,0,0,0,14.91,0"/><path class="cls-2" d="M14.91,3.36A11.67,11.67,0,1,1,3.25,15,11.67,11.67,0,0,1,14.91,3.36"/><path class="cls-3" d="M15.64,3.86V6.1H14.18V3.86A11.18,11.18,0,0,0,3.75,14.29H6v1.46H3.75A11.19,11.19,0,0,0,14.18,26.19V24h1.46v2.24A11.19,11.19,0,0,0,26.08,15.75H23.84V14.29h2.24A11.19,11.19,0,0,0,15.64,3.86m-.73-1.49A12.65,12.65,0,1,1,2.26,15,12.65,12.65,0,0,1,14.91,2.37Z"/><path class="cls-4" d="M17.13,17.72v4.53a.5.5,0,0,1-.54.55H13.11a.49.49,0,0,1-.54-.54V17.72H11.16a.45.45,0,0,1-.46-.3c-.22-.74-.45-1.48-.65-2.22a1.56,1.56,0,0,1,0-.57.45.45,0,0,1,.47-.42h1.55a3.6,3.6,0,0,0-.16-1.46c-.28-.6-.5-1.22-.75-1.83a1.89,1.89,0,0,1-.1-.88.48.48,0,0,1,.48-.42H12c.16-.44.26-.51.71-.51h1.85V8.57h-.65c-.27,0-.35-.09-.36-.36s0-.24,0-.35a.27.27,0,0,1,.29-.29h1.95a.27.27,0,0,1,.28.28c0,.14,0,.28,0,.41a.28.28,0,0,1-.31.31h-.69v.52H17c.45,0,.56.08.7.51h.47a.5.5,0,0,1,.52.53,1.91,1.91,0,0,1-.16.88c-.27.64-.52,1.29-.77,1.94a1.06,1.06,0,0,0-.08.4c0,.27,0,.54,0,.83l.19,0h1.31a.48.48,0,0,1,.53.53,2.46,2.46,0,0,1-.12.85c-.18.57-.34,1.14-.52,1.7a.51.51,0,0,1-.59.44Zm-5.3-7.11a.64.64,0,0,0,0,.07c.25.63.5,1.25.76,1.88a.21.21,0,0,0,.16.08h1.82v-2Zm3.27,2H17c.05,0,.11-.07.13-.12L17.7,11c.05-.14.1-.28.16-.43H15.1Zm-4.28,2.53s0,.05,0,.07c.13.46.27.91.4,1.37,0,.09.08.09.16.09h2.41l-.38-1.53Zm5.54,0L16,16.71h2.38s.09-.07.1-.11c.12-.38.23-.76.35-1.14,0-.09.05-.18.07-.28Zm-.6,1.53.34-1.52H13.68L14,16.71Z"/><path class="cls-4" d="M21.71,10.09a2.88,2.88,0,0,1-1.34,2.46.1.1,0,0,1-.05,0h-.17a.6.6,0,0,1,.05-.16c.15-.22.33-.41.46-.64a3.41,3.41,0,0,0-.46-4,.34.34,0,0,1-.05-.16c.06,0,.13,0,.17,0A2.77,2.77,0,0,1,21.67,9.7C21.69,9.83,21.69,10,21.71,10.09Z"/><path class="cls-4" d="M8,10a2.86,2.86,0,0,1,1.37-2.4c.05,0,.13-.11.18,0s0,.12-.06.16a3.43,3.43,0,0,0,0,4.64s.08.1.07.13-.1.09-.17,0a3,3,0,0,1-.86-.79A3.12,3.12,0,0,1,8,10Z"/><path class="cls-4" d="M20.43,10.1A2.12,2.12,0,0,1,19.36,12a.42.42,0,0,1-.16,0,.42.42,0,0,1,0-.16,2.71,2.71,0,0,0,0-3.39s0-.11-.06-.16.14,0,.18,0A2.12,2.12,0,0,1,20.43,10.1Z"/><path class="cls-4" d="M9.26,10.08a2.12,2.12,0,0,1,1.08-1.82s.1,0,.16,0a.37.37,0,0,1,0,.15,2.72,2.72,0,0,0,0,3.41s0,.1,0,.16a.68.68,0,0,1-.15,0A2.14,2.14,0,0,1,9.26,10.08Z"/></g></g></svg>