<svg xmlns="http://www.w3.org/2000/svg" xmlns:xlink="http://www.w3.org/1999/xlink" viewBox="0 0 48.03 60"><defs><style>.cls-1{fill:url(#linear-gradient);}.cls-2{fill:#fbfbfc;}.cls-3{fill:url(#linear-gradient-2);}.cls-4{fill:#fff;}</style><linearGradient id="linear-gradient" y1="30" x2="48.03" y2="30" gradientUnits="userSpaceOnUse"><stop offset="0" stop-color="#662d91"/><stop offset="1" stop-color="#93278f"/></linearGradient><linearGradient id="linear-gradient-2" x1="6.05" y1="25.12" x2="41.99" y2="25.12" xlink:href="#linear-gradient"/></defs><title>tasnsp_allo</title><g id="Layer_2" data-name="Layer 2"><g id="Layer_1-2" data-name="Layer 1"><path class="cls-1" d="M25.73,0a8.16,8.16,0,0,0,1.78.28A23.6,23.6,0,0,1,44.37,11.74a24.66,24.66,0,0,1,3.51,15.82,24.94,24.94,0,0,1-6,14c-1.32,1.55-2.77,3-4.18,4.42-4.42,4.61-8.86,9.19-13.28,13.79-.3.31-.44.37-.79,0C18,53.87,12.24,48.05,6.65,42.1a24.52,24.52,0,0,1-6.31-13A30.78,30.78,0,0,1,0,25.81V24c.05-.66.07-1.32.15-2A24.9,24.9,0,0,1,6.47,7.93a23.39,23.39,0,0,1,14-7.64A6.29,6.29,0,0,0,22.16,0ZM3.63,23.93A23,23,0,0,0,6.78,36.37a20,20,0,0,0,23.6,8.81,21.08,21.08,0,0,0,14-19.63,21.42,21.42,0,0,0-5-14.32A19.71,19.71,0,0,0,15,6.2,20.41,20.41,0,0,0,3.63,23.93Z"/><path class="cls-2" d="M3.63,23.93A20.41,20.41,0,0,1,15,6.2a19.71,19.71,0,0,1,24.38,5,21.42,21.42,0,0,1,5,14.32,21.08,21.08,0,0,1-14,19.63,20,20,0,0,1-23.6-8.81A23,23,0,0,1,3.63,23.93Zm21.56,18c0,.49,0,1,0,1.47,0,.33.08.44.41.39.53-.09,1.07-.13,1.61-.23A18.51,18.51,0,0,0,42,26.75c0-.37-.1-.43-.42-.43-.93,0-1.86,0-2.78,0-.3,0-.4-.09-.39-.39,0-.56,0-1.12,0-1.67,0-.31.1-.39.39-.39.74,0,1.47,0,2.2,0,1,0,1,0,.92-1a18.53,18.53,0,0,0-7.38-13,17.34,17.34,0,0,0-8.61-3.41c-.71-.08-.71-.07-.71.58,0,.87,0,1.75,0,2.62,0,.41-.13.51-.51.48a14.42,14.42,0,0,0-1.47,0c-.32,0-.41-.1-.41-.42,0-.91,0-1.82,0-2.72,0-.53-.17-.61-.62-.56a16.41,16.41,0,0,0-4.27,1c-7.16,3-11,8.38-11.9,16,0,.33.08.39.37.38.92,0,1.85,0,2.78,0,.37,0,.48.12.46.48a12,12,0,0,0,0,1.47c0,.38-.08.52-.49.5-.92,0-1.85,0-2.77,0-.31,0-.37.08-.35.39a18.22,18.22,0,0,0,1.39,5.73c2.87,6.49,7.75,10.34,14.85,11.29.46.06.56-.08.55-.51,0-.93,0-1.85,0-2.78,0-.34.1-.46.45-.44.52,0,1.05,0,1.57,0,.28,0,.37.09.36.36C25.18,40.87,25.19,41.38,25.19,41.88Z"/><path class="cls-3" d="M25.19,41.88c0-.5,0-1,0-1.52,0-.27-.08-.37-.36-.36-.52,0-1.05,0-1.57,0-.35,0-.45.1-.45.44,0,.93,0,1.85,0,2.78,0,.43-.09.57-.55.51-7.1-.95-12-4.8-14.85-11.29a18.22,18.22,0,0,1-1.39-5.73c0-.31,0-.39.35-.39.92,0,1.85,0,2.77,0,.41,0,.51-.12.49-.5a12,12,0,0,1,0-1.47c0-.36-.09-.49-.46-.48-.93,0-1.86,0-2.78,0-.29,0-.4,0-.37-.38.88-7.63,4.74-13,11.9-16a16.41,16.41,0,0,1,4.27-1c.45,0,.65,0,.62.56,0,.9,0,1.81,0,2.72,0,.32.09.44.41.42a14.42,14.42,0,0,1,1.47,0c.38,0,.52-.07.51-.48,0-.87,0-1.75,0-2.62,0-.65,0-.66.71-.58a17.34,17.34,0,0,1,8.61,3.41,18.53,18.53,0,0,1,7.38,13c.12,1,.1,1-.92,1-.73,0-1.46,0-2.2,0-.29,0-.4.08-.39.39,0,.55,0,1.11,0,1.67,0,.3.09.39.39.39.92,0,1.85,0,2.78,0,.32,0,.45.06.42.43A18.51,18.51,0,0,1,27.21,43.51c-.54.1-1.08.14-1.61.23-.33,0-.43-.06-.41-.39C25.21,42.86,25.19,42.37,25.19,41.88Z"/><path class="cls-4" d="M14.69,17.59H25.12c.91,0,1.11.2,1.11,1.11V28.85c0,.84-.19,1-1,1h-2c-.78-1.83-1.53-2.42-2.94-2.36a2.84,2.84,0,0,0-2.55,2.31.13.13,0,0,1-.07,0c-1.29.08-1.44-.06-1.44-1.34v-2.3a.9.9,0,0,1,0-.15h2.28v-.82H14.69v-.72h1.55v-.79h3V23H14.69v-.81h1.52l0-.74h3.82v-.79H14.69v-.73h1.52l0-.82h4.58v-.76H16.94l-2.25,0Z"/><path class="cls-4" d="M27.75,29.88c-.55-.12-.72-.31-.73-.85,0-.86,0-1.71,0-2.57,0-1.55,0-3.1,0-4.64,0-1,.16-1.14,1.11-1.14s1.93,0,2.89,0a1.26,1.26,0,0,1,1.11.48c.74,1,1.51,2,2.2,3.07a2.47,2.47,0,0,1,.34,1.23c0,1.17,0,2.35,0,3.52a.94.94,0,0,1-1.4.89.35.35,0,0,1-.16-.24,2.67,2.67,0,0,0-2.68-2.1,2.75,2.75,0,0,0-2.64,2.17A1.67,1.67,0,0,0,27.75,29.88Zm5.64-4.67a.9.9,0,0,0-.06-.22c-.61-.87-1.22-1.74-1.84-2.6a.48.48,0,0,0-.34-.18c-.6,0-1.19,0-1.81,0v3Z"/><path class="cls-4" d="M32.22,30.3a1.73,1.73,0,0,1-1.78,1.75,1.77,1.77,0,0,1-1.75-1.75,1.82,1.82,0,0,1,1.78-1.79A1.77,1.77,0,0,1,32.22,30.3Z"/><path class="cls-4" d="M20.44,32.05a1.76,1.76,0,0,1-1.75-1.75,1.77,1.77,0,1,1,3.54,0A1.75,1.75,0,0,1,20.44,32.05Z"/></g></g></svg>