<svg xmlns="http://www.w3.org/2000/svg" viewBox="0 0 18 10.98"><defs><style>.cls-1{fill:#e6e6e6;}</style></defs><title>trip</title><g id="Layer_2" data-name="Layer 2"><g id="Layer_1-2" data-name="Layer 1"><path class="cls-1" d="M18,9.53c-.36.31-.79.14-1.18.17-.19,0-.31,0-.39.23A1.55,1.55,0,0,1,14.89,11a1.6,1.6,0,0,1-1.51-1.1l-.07-.18h-8c-.26,0-.42,0-.54.32a1.47,1.47,0,0,1-1.47,1,1.53,1.53,0,0,1-1.48-1c-.08-.18-.12-.32-.37-.32-.71,0-.71,0-.82-.66L0,8.73V8.41l.68-.28V.63C.68.05.73,0,1.32,0H12c.57,0,.61,0,.61.61V2.49c.69,0,1.36,0,2,0a.9.9,0,0,1,.76.34L18,5.77ZM1.4.73v6H11.92v-6ZM17.26,6.26H15.14c-.46,0-.52-.07-.53-.54V3.24H12.68V9c.57.07.56.07.81-.39a1.53,1.53,0,0,1,1.43-.84,1.51,1.51,0,0,1,1.41.82c.29.5.31.51.93.39ZM11.93,7.44H1.4V9c.28.15.35,0,.44-.23a1.53,1.53,0,0,1,1.46-1,1.47,1.47,0,0,1,1.49.94A.47.47,0,0,0,5.32,9h6.61ZM4.24,9.34a.93.93,0,0,0-.92-.9.93.93,0,0,0-.91.91.92.92,0,1,0,1.83,0Zm11.6,0a.92.92,0,1,0-1.84,0,.92.92,0,0,0,1.84,0ZM15.33,3.8V5.54h1.53Z"/><path class="cls-1" d="M9.56,5.61H11c.25,0,.46.11.42.35A.52.52,0,0,1,11,6.3q-1.45,0-2.91,0A.5.5,0,0,1,7.75,6c0-.25.16-.35.41-.35Z"/><path class="cls-1" d="M6.86,6.49c-.21-.25-.42-.38-.44-.54s.18-.35.42-.35.48.07.44.36S7.06,6.25,6.86,6.49Z"/></g></g></svg>