<svg xmlns="http://www.w3.org/2000/svg" viewBox="0 0 31.45 17.82"><defs><style>.cls-1{fill:#009245;}</style></defs><title>truck</title><g id="Layer_2" data-name="Layer 2"><g id="Layer_1-2" data-name="Layer 1"><path class="cls-1" d="M21.87,0a1.23,1.23,0,0,1,.61,1.5Q21.1,8.24,19.75,15c-.07.33-.18.49-.58.49-2.1,0-4.19,0-6.29,0-.56,0-.49-.34-.56-.65a3.38,3.38,0,0,0-6.21-1.05,2.12,2.12,0,0,0-.4,1c0,.57-.26.66-.78.67-2,.06-2.47-.13-2-2.39C3.8,9.32,4.52,5.52,5.26,1.73A2.05,2.05,0,0,1,6.59,0Z"/><path class="cls-1" d="M31.45,12a12.09,12.09,0,0,0-.56,2.45,1.07,1.07,0,0,1-1.19,1c-.72,0-1.1-.05-1.27-.92a3.22,3.22,0,0,0-3.51-2.4,3.3,3.3,0,0,0-3,2.9c-.1.8-.65.32-1,.37-.46.07-.24-.33-.2-.51.66-3.42,1.36-6.84,2-10.27a.9.9,0,0,1,1-.84c1.23,0,2.45,0,3.67,0a1.27,1.27,0,0,1,1.36.92c.87,2.18,1.79,4.35,2.68,6.52ZM23.53,7.23a.46.46,0,0,0,.4.57l5.15,1.43c.39.1.45,0,.3-.36-.47-1.12-.92-2.25-1.37-3.38a.62.62,0,0,0-.63-.42h-3c-.28,0-.5.08-.56.38C23.72,6.05,23.63,6.67,23.53,7.23Z"/><path class="cls-1" d="M0,4.35C.58,3,.58,3,2.18,3c.23,0,.45,0,.67,0,.39,0,1-.19,1.12.12s-.17,1-.34,1.49c-.11.3-.4.25-.64.25H0Z"/><path class="cls-1" d="M0,8.25c.62-1.53.62-1.5,2.34-1.52.6,0,.71.14.53.72-.36,1.16-.32,1.17-1.54,1.16-.44,0-.89,0-1.33-.06Z"/><path class="cls-1" d="M0,11.85c.25-.22.24-.55.32-.84s.26-.51.57-.46.88-.29,1,.29-.48,1.59-1,1.6H0Z"/><path class="cls-1" d="M25.23,17.82a2.45,2.45,0,0,1-2.45-2.32,2.41,2.41,0,0,1,2.38-2.37,2.37,2.37,0,0,1,2.47,2.34A2.4,2.4,0,0,1,25.23,17.82Z"/><path class="cls-1" d="M11.41,15.48A2.38,2.38,0,0,1,9,17.82a2.35,2.35,0,1,1,0-4.7A2.35,2.35,0,0,1,11.41,15.48Z"/></g></g></svg>