<svg xmlns="http://www.w3.org/2000/svg" xmlns:xlink="http://www.w3.org/1999/xlink" viewBox="0 0 49.71 60"><defs><style>.cls-1,.cls-2,.cls-3{fill-rule:evenodd;}.cls-1{fill:url(#linear-gradient);}.cls-2{fill:url(#linear-gradient-2);}.cls-3{fill:#fefefe;}.cls-4{fill:#fff;}</style><linearGradient id="linear-gradient" y1="30" x2="49.71" y2="30" gradientUnits="userSpaceOnUse"><stop offset="0" stop-color="#c69c6d"/><stop offset="1" stop-color="#42210b"/></linearGradient><linearGradient id="linear-gradient-2" x1="5.41" y1="25.04" x2="44.29" y2="25.04" xlink:href="#linear-gradient"/></defs><title>vendor_pay</title><g id="Layer_2" data-name="Layer 2"><g id="Layer_1-2" data-name="Layer 1"><path class="cls-1" d="M24.85,0A24.82,24.82,0,0,0,6.61,41.69l0,0,.69.7h0L24.85,60,42.41,42.44h0v0l.69-.69,0,0A24.82,24.82,0,0,0,24.85,0"/><path class="cls-2" d="M24.85,5.6A19.44,19.44,0,1,1,5.41,25,19.44,19.44,0,0,1,24.85,5.6"/><path class="cls-3" d="M26.07,6.43v3.73H23.64V6.43A18.65,18.65,0,0,0,6.24,23.82H10v2.43H6.24a18.66,18.66,0,0,0,17.4,17.4V39.91h2.43v3.74a18.65,18.65,0,0,0,17.39-17.4H39.73V23.82h3.73A18.64,18.64,0,0,0,26.07,6.43M24.85,4A21.08,21.08,0,1,1,3.77,25,21.08,21.08,0,0,1,24.85,4Z"/><path class="cls-4" d="M29.55,16.54a2.59,2.59,0,0,1,.2.57,5.61,5.61,0,0,1,0,.82c0,.38-.11.48-.49.49H26.85c.2.52.39,1,.6,1.53a.36.36,0,0,0,.27.11h1.45c.55,0,.6,0,.6.58v.81c0,.33-.13.48-.46.48H27.52c-.5,2.49-2.23,3.55-4.6,3.91.56.63,1.1,1.22,1.62,1.83L28,31.84a.44.44,0,0,1-.05.7H25.5l-.3-.31c-1.55-1.79-3.08-3.59-4.66-5.36-.95-1.09-1-1.06-1-2.49,0-.41.12-.51.54-.52s.9,0,1.35,0A4.41,4.41,0,0,0,24,23.14a2.15,2.15,0,0,0,.8-1.19H20.15c-.49,0-.56-.07-.57-.58v-.71c0-.52.06-.57.57-.57h4.42l.07-.13a4,4,0,0,0-.82-.68,4.41,4.41,0,0,0-1.41-.42c-.73-.08-1.47-.06-2.2-.07-.56,0-.63-.06-.63-.61,0-.36,0-.73,0-1.1a1.81,1.81,0,0,1,.22-.52Z"/></g></g></svg>